<svg width="78" height="78" viewBox="0 0 78 78" fill="none" xmlns="http://www.w3.org/2000/svg">
<rect width="78" height="78" fill="#1E1E1E"/>
<g id="MacBook Air - 6" clip-path="url(#clip0_0_1)">
<rect width="1055" height="832" transform="translate(-289 -35)" fill="white"/>
<g id="Group 17953">
<g id="Rectangle 4137" filter="url(#filter0_d_0_1)">
<rect x="15" y="85" width="323" height="247.714" rx="18.2143" fill="white"/>
</g>
</g>
<g id="Group 17955">
<g id="Rectangle 105" filter="url(#filter1_d_0_1)">
<path d="M41 10H27C20.3726 10 15 15.3726 15 22V36C15 42.6274 20.3726 48 27 48H41C47.6274 48 53 42.6274 53 36V22C53 15.3726 47.6274 10 41 10Z" fill="white"/>
</g>
<path id="Path 3391" d="M37 24L32 28.6839L37 33.6839" stroke="#111719" stroke-width="2" stroke-linecap="round" stroke-linejoin="round"/>
</g>
</g>
<defs>
<filter id="filter0_d_0_1" x="-3.21429" y="66.7857" width="395.857" height="320.571" filterUnits="userSpaceOnUse" color-interpolation-filters="sRGB">
<feFlood flood-opacity="0" result="BackgroundImageFix"/>
<feColorMatrix in="SourceAlpha" type="matrix" values="0 0 0 0 0 0 0 0 0 0 0 0 0 0 0 0 0 0 127 0" result="hardAlpha"/>
<feOffset dx="18.2143" dy="18.2143"/>
<feGaussianBlur stdDeviation="18.2143"/>
<feColorMatrix type="matrix" values="0 0 0 0 0.827451 0 0 0 0 0.819608 0 0 0 0 0.847059 0 0 0 0.25 0"/>
<feBlend mode="normal" in2="BackgroundImageFix" result="effect1_dropShadow_0_1"/>
<feBlend mode="normal" in="SourceGraphic" in2="effect1_dropShadow_0_1" result="shape"/>
</filter>
<filter id="filter1_d_0_1" x="0" y="0" width="78" height="78" filterUnits="userSpaceOnUse" color-interpolation-filters="sRGB">
<feFlood flood-opacity="0" result="BackgroundImageFix"/>
<feColorMatrix in="SourceAlpha" type="matrix" values="0 0 0 0 0 0 0 0 0 0 0 0 0 0 0 0 0 0 127 0" result="hardAlpha"/>
<feOffset dx="5" dy="10"/>
<feGaussianBlur stdDeviation="10"/>
<feColorMatrix type="matrix" values="0 0 0 0 0.827451 0 0 0 0 0.819608 0 0 0 0 0.847059 0 0 0 0.3 0"/>
<feBlend mode="normal" in2="BackgroundImageFix" result="effect1_dropShadow_0_1"/>
<feBlend mode="normal" in="SourceGraphic" in2="effect1_dropShadow_0_1" result="shape"/>
</filter>
<clipPath id="clip0_0_1">
<rect width="1055" height="832" fill="white" transform="translate(-289 -35)"/>
</clipPath>
</defs>
</svg>
